<?xml version="1.0" encoding="utf-8"?>
<!-- Generator: Adobe Illustrator 26.1.0, SVG Export Plug-In . SVG Version: 6.00 Build 0)  -->
<svg version="1.1" id="Layer_1" xmlns="http://www.w3.org/2000/svg" xmlns:xlink="http://www.w3.org/1999/xlink" x="0px" y="0px"
	 width="613.9px" height="615px" viewBox="0 0 613.9 615" style="enable-background:new 0 0 613.9 615;" xml:space="preserve">
<style type="text/css">
	.st0{fill:#EEEBEC;}
</style>
<path id="Path_361" class="st0" d="M160.4,167.5c-7.7,8-14.7,16.6-21.1,25.8l-1.2,1.6c-22.2,27.9-39.7,59.2-52,92.7l-1.3,3.2
	C41.2,394.3,12.6,503.5,0,615c111-12.7,219.6-41.2,322.5-84.6l3.2-1.3c33.5-12.3,64.8-29.9,92.7-52l1.6-1.2
	c9.1-6.4,17.8-13.4,25.8-21l2.2-2.4c1.2-1.3,2.4-2.6,3.8-3.7l3.7-3.5c10.5-9.7,19.6-20.7,27.3-32.8l1-1.3
	c19.8-27,35.4-56.8,46.2-88.5l1.1-2.9c39.8-103,67.6-210.4,82.8-319.8C505,15.1,398.2,42.8,295.7,82.5l-2.9,1.1
	c-31.7,10.8-61.5,26.4-88.5,46.2l-1.3,0.9c-12.1,7.6-23.1,16.8-32.8,27.2l-3.4,3.7c-1.3,1.3-2.7,2.6-4.1,3.7l-2.3,2.1L160.4,167.5z"
	/>
</svg>
