<svg xmlns="http://www.w3.org/2000/svg" id="Layer_1" data-name="Layer 1" width="283.465" height="66.652" viewBox="0 0 283.465 66.652"><defs><style>.cls-1{fill:#001489;}.cls-2{fill:#ff6a39;}</style></defs><path class="cls-1" d="M87.021,65.378h8.241V8.636A8.241,8.241,0,0,0,87.021.4Z"/><path class="cls-1" d="M110.81,37.346c1.019-9.429,6.965-15.12,16.31-15.12,9.257,0,14.44,5.946,15.12,15.12Zm16.225-21.831C112,15.515,102.569,25.624,102.569,41v1.019c0,15.036,8.156,24.634,24.209,24.634,11.978,0,20.219-5.691,23.021-15.715H140.88c-1.869,5.692-6.711,8.749-13.76,8.749-10.025,0-15.8-5.861-16.4-15.8h39.754V39.979c0-13.082-7.476-24.464-23.444-24.464"/><path class="cls-1" d="M204,65.378h8.241V8.636A8.241,8.241,0,0,0,204,.4Z"/><path class="cls-1" d="M220,65.378h8.409V25.284A8.409,8.409,0,0,0,220,16.875Z"/><path class="cls-1" d="M243.8,37.346c1.019-9.429,6.965-15.12,16.31-15.12,9.257,0,14.44,5.946,15.12,15.12Zm39.669,2.633c0-13.082-7.477-24.464-23.445-24.464-15.034,0-24.465,10.109-24.465,25.484v1.019c0,15.036,8.156,24.634,24.209,24.634,11.977,0,20.218-5.691,23.021-15.715h-8.919c-1.869,5.692-6.711,8.75-13.76,8.75-10.025,0-15.8-5.862-16.395-15.8h39.754Z"/><path class="cls-1" d="M179.366,37.261c-7.646-1.1-14.781-1.869-14.781-7.475,0-3.993,2.719-7.56,11.043-7.56,7.644,0,12.148,2.973,12.91,8.664h8.41c-1.272-9.344-8.153-15.375-21.235-15.375-13.168,0-19.282,6.711-19.282,14.7,0,10.534,9.767,12.318,18.688,13.592,7.644,1.1,14.694,1.868,14.694,7.559,0,4.588-3.4,8.24-12.315,8.24-7.083,0-12.364-2.739-13.923-8.672H154.54c1.856,10.275,9.713,15.723,22.787,15.723,14.184,0,20.642-6.965,20.642-15.8,0-10.533-9.684-12.317-18.6-13.591"/><path class="cls-2" d="M62.58,65.068l-2.1-.233a69.536,69.536,0,0,1-10.046-1.989c-3.466-.98-7.392-2.262-10.129-5.084-3.145-3.242-4.484-7.339-5.492-10.926a45.35,45.35,0,0,1-1.449-7.817c-1.371-.056-2.783-.056-4.154,0a45.267,45.267,0,0,1-1.45,7.818c-1.008,3.586-2.347,7.684-5.491,10.925-2.737,2.822-6.663,4.1-10.129,5.083A69.458,69.458,0,0,1,2.1,64.835L0,65.068l.233-2.1a69.615,69.615,0,0,1,1.99-10.046C3.2,49.459,4.484,45.533,7.305,42.8c3.243-3.145,7.341-4.483,10.927-5.491a45.326,45.326,0,0,1,7.818-1.451q.041-1.028.041-2.076T26.05,31.7a45.469,45.469,0,0,1-7.819-1.45C14.645,29.243,10.547,27.9,7.305,24.76,4.485,22.024,3.2,18.1,2.223,14.632A69.642,69.642,0,0,1,.233,4.585L0,2.488l2.1.233a69.458,69.458,0,0,1,10.046,1.99c3.466.98,7.391,2.261,10.129,5.083,3.144,3.241,4.483,7.339,5.491,10.926a45.267,45.267,0,0,1,1.45,7.818c1.371.055,2.783.055,4.154,0a45.362,45.362,0,0,1,1.449-7.818c1.008-3.586,2.347-7.683,5.492-10.926,2.737-2.822,6.663-4.1,10.129-5.083a69.458,69.458,0,0,1,10.046-1.99l2.1-.233-.233,2.1a69.642,69.642,0,0,1-1.99,10.047c-.98,3.465-2.262,7.392-5.083,10.128-3.241,3.144-7.339,4.483-10.926,5.492A45.44,45.44,0,0,1,36.53,31.7q-.041,1.027-.041,2.076t.041,2.076a45.326,45.326,0,0,1,7.818,1.451c3.586,1.008,7.683,2.346,10.926,5.491,2.822,2.737,4.1,6.663,5.083,10.129a69.615,69.615,0,0,1,1.99,10.046ZM36.788,39.276a41.645,41.645,0,0,0,1.278,6.647c1.144,4.068,2.323,7.074,4.665,9.489,1.938,2,4.849,3.117,8.624,4.185a65.3,65.3,0,0,0,7.331,1.578,65.435,65.435,0,0,0-1.578-7.332c-1.067-3.775-2.187-6.686-4.184-8.623-2.416-2.343-5.422-3.522-9.489-4.665A41.534,41.534,0,0,0,36.788,39.276Zm-11,0a41.534,41.534,0,0,0-6.647,1.279c-4.068,1.143-7.073,2.322-9.489,4.665-2,1.937-3.117,4.848-4.185,8.623a65.35,65.35,0,0,0-1.578,7.331A65.4,65.4,0,0,0,11.225,59.6c3.775-1.068,6.686-2.188,8.623-4.185C22.19,53,23.37,49.991,24.514,45.923A41.645,41.645,0,0,0,25.792,39.276Zm5.5-3.675q.934,0,1.854.031-.032-.919-.031-1.854t.031-1.854c-1.226.041-2.482.041-3.708,0q.03.919.031,1.854t-.031,1.854Q30.356,35.6,31.29,35.6ZM3.894,6.382a65.377,65.377,0,0,0,1.578,7.331c1.067,3.775,2.187,6.686,4.184,8.623,2.415,2.342,5.421,3.522,9.489,4.666a41.667,41.667,0,0,0,6.647,1.278,41.633,41.633,0,0,0-1.278-6.646c-1.144-4.069-2.324-7.075-4.666-9.49-1.937-2-4.848-3.117-8.623-4.184A65.424,65.424,0,0,0,3.894,6.382Zm54.792,0A65.377,65.377,0,0,0,51.355,7.96c-3.775,1.067-6.686,2.187-8.624,4.184-2.342,2.416-3.521,5.422-4.665,9.489a41.688,41.688,0,0,0-1.278,6.647A41.633,41.633,0,0,0,43.434,27c4.069-1.144,7.075-2.324,9.49-4.666,2-1.937,3.117-4.848,4.185-8.623A65.568,65.568,0,0,0,58.686,6.382Z"/><path class="cls-2" d="M228.594,0a27.9,27.9,0,0,0-3.461,1.651c-1.814,1.106-3.035,1.876-3.756,3.2-.871,1.6-.914,3.1-.92,5.39a20.344,20.344,0,0,0,.434,3.416,20.228,20.228,0,0,0,3.147-1.4c1.956-1.188,3.219-2,4.138-3.575.76-1.3.787-2.745.8-4.87A27.615,27.615,0,0,0,228.594,0Z"/></svg>